# Created with Anim8or 0.95
# Object "store":
# ComRec:
g mesh01
# No. points 8:
v -64 0 48
v -64 0 -48
v 64 0 -48
v 64 0 48
v -64 96 48
v 64 96 48
v 64 96 -48
v -64 96 -48

# No. normals 30:
vn 0 -1 0
vn 0 1 0
vn 0 0 1
vn 1 0 0
vn 0 0 -1
vn -1 0 0
vn 0 -1 0
vn -1 0 0
vn 0 0 1
vn 0 -1 0
vn -1 0 0
vn 0 0 -1
vn 0 -1 0
vn 0 0 -1
vn 1 0 0
vn 0 -1 0
vn 1 0 0
vn 0 0 1
vn 0 1 0
vn -1 0 0
vn 0 0 1
vn 0 1 0
vn 1 0 0
vn 0 0 1
vn 0 1 0
vn 0 0 -1
vn 1 0 0
vn 0 1 0
vn -1 0 0
vn 0 0 -1

# No. texture coordinates 12:
vt 0.95270 0.65430
vt 0.95270 0.95060
vt 0.55350 0.95060
vt 0.55350 0.65430
vt 0.10290 0.00820
vt 0.90530 0.00820
vt 0.90530 0.60700
vt 0.10290 0.60700
vt 0.05140 0.65430
vt 0.34980 0.65430
vt 0.34980 0.94650
vt 0.05140 0.94650

# No. faces 6:
f 1/1/7 2/2/10 3/3/13 4/4/16
f 5/4/19 6/1/22 7/2/25 8/3/28
f 1/5/9 4/6/18 6/7/24 5/8/21
f 4/9/17 3/10/15 7/11/27 6/12/23
f 3/5/14 2/6/12 8/7/30 7/8/26
f 2/9/11 1/10/8 5/11/20 8/12/29


