# file generated by UVMapper
# NumVerts/NumTVerts/NumVNormals/NumFacets   118/213/72/106
# NumGroups/NumMaterials/NumRegions   0/0/0
# x/y/color/ppu   1024/1024/0/50.00000000

v  10.56283569  0.51139098 -1.80391395
v  10.56283569 -0.50875098 -1.80391395
v  4.33965921 -0.50875098 -1.80391395
v  4.33966017  0.51139098 -1.80391395
v  10.56283665  0.20948300 -0.39972001
v  10.56283379 -0.20684300 -0.39972001
v  4.33966017  0.25635600 -2.28450799
v  4.33965921 -0.25371599 -2.28450799
v  10.56283569 -0.25371599 -2.28450799
v  10.56283569  0.25635600 -2.28450799
v  1.95549500  0.51139301 -1.80391502
v  1.95549405 -0.50875002 -1.80391502
v  1.95549405 -0.50875002 -2.96771407
v  1.95549500  0.51139301 -2.96771407
v  4.33966017  0.51139098 -2.53762388
v  4.33965921 -0.50875098 -2.53762388
v  0.47559699 -0.50874698 -1.80391800
v  0.47559801  0.51139498 -1.80391800
v -1.14834499  0.51139700 -1.80392003
v -1.14834595 -0.50874603 -1.80392003
v -0.77498299  0.36098400 -2.75840306
v -0.77498400 -0.34617800 -2.75840306
v  0.33701399 -0.34617901 -2.75840211
v  0.33701500  0.36098301 -2.75840211
v -0.55490601 -0.45868701 -5.10302687
v -0.55490500  0.55951798 -5.10302782
v -1.95143497  0.55952001 -4.31992483
v -1.95143604 -0.45868501 -4.31992483
v -1.14834595 -0.50874603 -0.87640297
v -1.14834499  0.51139700 -0.87640297
v  0.47559699 -0.50874698 -0.39972001
v  1.95549405 -0.50875002 -0.39972001
v  4.33965921  0.20948300 -0.39972001
v  4.33965778 -0.20684300 -0.39972001
v  0.47559801  0.51139498 -0.39972001
v  1.95549500  0.51139301 -0.39972001
v -6.00360298  0.39310601 -2.37669611
v -6.00360298  0.39310601 -1.44917905
v -6.00360298 -0.39043999 -1.44917905
v -6.00360298 -0.39043999 -2.37669611
v -7.25856113  0.71698302 -5.50177383
v -7.25856113 -0.71431601 -5.50177383
v -7.25856113 -0.71431601 -1.18666303
v -7.25856113  0.71698302 -1.18666303
v -7.68694496  0.45249501 -1.42645001
v -7.68694496  0.45249501 -5.26198578
v -7.68694496 -0.44982901 -1.42645001
v -7.68694496 -0.44982901 -5.26198578
v  10.29576492  0.28620899 -0.98626000
v  10.29576492  0.28639799 -1.31533206
v  10.29576492  0.00150800 -1.48003101
v  10.29576492 -0.28356999 -1.31565905
v  10.29576492 -0.28375900 -0.98658699
v  10.29576492  0.00113100 -0.82188803
v  14.57279778  0.27892300 -0.98760402
v  14.57279778  0.27911201 -1.31667495
v  14.57279778 -0.00577700 -1.48137403
v  14.57279778 -0.29085600 -1.31700206
v  14.57279778 -0.29104501 -0.98793101
v  14.57279778 -0.00615600 -0.82323200
v  1.28525198  0.39309201 -0.47589499
v  1.28525198  0.00132000 -0.47589499
v  0.62543303  0.00132000 -0.47589499
v  0.62543303  0.39309299 -0.47589499
v  1.28525198  0.39309201  0.01382100
v  1.28525198  0.00131900 -0.37795201
v  0.62543303  0.00132000 -0.37795201
v  0.62543303  0.39309201  0.01382100
v  0.62543303 -0.39045301  0.01382100
v  1.28525198 -0.39045399  0.01382100
v  0.62543303 -0.39045301 -0.47589499
v  1.28525198 -0.39045301 -0.47589499
v  0.74218202  0.00132000 -0.38518500
v  0.85001999  0.00132000 -0.30810300
v  0.74218202  0.00132000 -0.23102200
v  0.63434398  0.00132000 -0.30810300
v  0.74218202  0.38672701  0.00022300
v  0.85001999  0.30964601  0.00022300
v  0.74218202  0.23256400  0.00022300
v  0.63434398  0.30964601  0.00022300
v  0.74218202  0.00131900  0.38563100
v  0.85001999  0.00131900  0.30855000
v  0.74218202  0.00131900  0.23146801
v  0.63434398  0.00131900  0.30855000
v  0.74218202 -0.38408801  0.00022300
v  0.85001999 -0.30700701  0.00022300
v  0.74218202 -0.22992501  0.00022300
v  0.63434398 -0.30700701  0.00022300
v  4.17624521  0.36241299 -2.24567199
v  4.25543594  0.36241299 -3.69133210
v  2.25543690  0.36241299 -4.29846478
v  2.17624593  0.36241299 -2.24567103
v  4.17624617 -0.36241299 -2.24567199
v  4.25543594 -0.36241400 -3.69133306
v  2.25543594 -0.36241400 -4.29846478
v  2.17624497 -0.36241299 -2.24567199
v  3.03576207 -0.40259099 -6.18318605
v  4.97900200 -0.40259099 -5.09610701
v  3.03576207  0.40259200 -6.18318605
v  4.97900295  0.40259200 -5.09610605
v  14.56860161  0.26634401 -0.98978400
v  14.56860161 -0.00000000  0.02156300
v  14.56860161 -0.26634401 -0.98978502
v  13.56860161 -0.00000000 -0.97843599
v  2.14703989  0.20000000 -2.61716008
v  2.14703989  0.20000000 -2.81715989
v  0.14704099  0.20000000 -2.81715989
v  0.14704099  0.20000000 -2.61716008
v  2.14704108 -0.20000000 -2.61716008
v  2.14703989 -0.20000000 -2.81715989
v  0.14703999 -0.20000000 -2.81715989
v  0.14704099 -0.20000000 -2.61716008
v  1.29760098  0.10000000 -1.72243595
v  1.29760098  0.10000000 -2.54727101
v  0.94139200  0.10000000 -1.72243595
v  1.29760098 -0.10000000 -1.72243595
v  1.29760098 -0.10000000 -2.54727101
v  0.94139200 -0.10000000 -1.72243595

vt  0.80120355  0.78895277
vt  0.53178507  0.74003518
vt  0.80120349  0.74003518
vt  0.89696437  0.54049283
vt  0.83617294  0.45610160
vt  0.80189681  0.53455698
vt  0.80189681  0.69954741
vt  0.80189693  0.69954741
vt  0.53247857  0.53455698
vt  0.53247851  0.69954741
vt  0.80189681  0.47808799
vt  0.53247857  0.47808799
vt  0.83617294  0.57493985
vt  0.83617294  0.45507476
vt  0.81536669  0.48504099
vt  0.81536669  0.54497367
vt  0.53247851  0.47808799
vt  0.80120349  0.79446024
vt  0.80120349  0.73452765
vt  0.53178519  0.73452765
vt  0.53178525  0.79446024
vt  0.13521408  0.84521872
vt  0.13521408  0.96508378
vt  0.08483002  0.96508378
vt  0.08483002  0.84521872
vt  0.42926145  0.53455687
vt  0.42926145  0.39781246
vt  0.53247851  0.44834730
vt  0.42926154  0.53455687
vt  0.53247857  0.44834730
vt  0.42926154  0.39781246
vt  0.13521411  0.96508354
vt  0.13521411  0.84521860
vt  0.10344980  0.84521860
vt  0.10344980  0.96508354
vt  0.53178525  0.82442641
vt  0.53178519  0.70456147
vt  0.27041355  0.33084550
vt  0.27041355  0.45071054
vt  0.22909142  0.43303728
vt  0.35919303  0.42240623
vt  0.27041361  0.45071030
vt  0.27041361  0.33084539
vt  0.22909145  0.43303716
vt  0.22909145  0.34994683
vt  0.12758642  0.33672735
vt  0.12758638  0.45636469
vt  0.31105167  0.42240614
vt  0.35919312  0.42240623
vt  0.32057944  0.14691675
vt  0.26011983  0.23893002
vt  0.31105161  0.42240614
vt  0.26011977  0.23893002
vt  0.32057941  0.14691685
vt  0.22909142  0.34994695
vt  0.16148899  0.45636493
vt  0.16148899  0.33672759
vt  0.30879280  0.15348993
vt  0.30879277  0.03385253
vt  0.24833314  0.03385276
vt  0.24833317  0.15349017
vt  0.36519271  0.53455651
vt  0.29488781  0.53455627
vt  0.29488781  0.64353794
vt  0.42926145  0.69954741
vt  0.36519271  0.69954741
vt  0.83617294  0.57596648
vt  0.89696437  0.49157527
vt  0.36449936  0.70456195
vt  0.53178519  0.78895277
vt  0.42856812  0.70456159
vt  0.42856821  0.82442665
vt  0.36449936  0.82442689
vt  0.08469038  0.46725604
vt  0.29419440  0.70456207
vt  0.29419446  0.82442713
vt  0.29488772  0.53455627
vt  0.29488772  0.64353794
vt  0.08469038  0.57623774
vt  0.08399705  0.71846282
vt  0.21025662  0.28691423
vt  0.21025662  0.19484887
vt  0.07496350  0.15679397
vt  0.07496350  0.32496923
vt  0.03035980  0.10006477
vt  0.08399705  0.81052816
vt  0.03035980  0.60708290
vt  0.01112057  0.81750625
vt  0.01112057  0.71148473
vt  0.01181391  0.57890838
vt  0.01181391  0.12823945
vt  0.02966646  0.84858316
vt  0.02966646  0.68040794
vt  0.05345092  0.12654118
vt  0.05345092  0.02051966
vt  0.21950215  0.02051966
vt  0.21950215  0.12654118
vt  0.42926154  0.69954741
vt  0.53247845  0.69954741
vt  0.53247851  0.53455698
vt  0.81390792  0.62960321
vt  0.99907237  0.62944525
vt  0.99907237  0.59077996
vt  0.81390792  0.59093779
vt  0.81390792  0.69634748
vt  0.99907237  0.69549137
vt  0.99907237  0.66201741
vt  0.81390792  0.66287339
vt  0.99907237  0.62852108
vt  0.81390792  0.62937719
vt  0.81390792  0.59089935
vt  0.99907237  0.59074152
vt  0.99907237  0.62940681
vt  0.81390792  0.62956476
vt  0.81390792  0.62935501
vt  0.99907237  0.62849891
vt  0.81390792  0.66282910
vt  0.99907237  0.66197288
vt  0.99907237  0.69546914
vt  0.81390792  0.69632524
vt  0.47777158  0.94360900
vt  0.44040510  0.88695347
vt  0.47777158  0.88695347
vt  0.40491357  0.97111392
vt  0.43264687  0.97111392
vt  0.41046017  0.91445827
vt  0.40491357  0.97111404
vt  0.41046017  0.91445845
vt  0.43264687  0.85780287
vt  0.40491357  0.91445845
vt  0.43264687  0.85780269
vt  0.40491357  0.85780287
vt  0.44040510  0.94360900
vt  0.47777158  0.87278956
vt  0.44040510  0.87278956
vt  0.49665770  0.86925477
vt  0.49055055  0.88040179
vt  0.48444355  0.86925477
vt  0.49055055  0.91384286
vt  0.49665770  0.91384286
vt  0.49055055  0.94728398
vt  0.50530344  0.91572201
vt  0.51141047  0.91572201
vt  0.51141047  0.97145712
vt  0.50530344  0.96031016
vt  0.49665770  0.95843107
vt  0.49055055  0.96957797
vt  0.48444355  0.95843107
vt  0.51751751  0.91572213
vt  0.51751751  0.87113398
vt  0.51141047  0.85998708
vt  0.51141047  0.91572213
vt  0.51141047  0.88228101
vt  0.50530344  0.91572213
vt  0.50530344  0.87113398
vt  0.49055055  0.85810775
vt  0.48444355  0.91384286
vt  0.56361824  0.46930423
vt  0.65020370  0.46930414
vt  0.65363204  0.29944155
vt  0.65020376  0.46930414
vt  0.56361818  0.46930414
vt  0.65363204  0.29944143
vt  0.80526108  0.43525857
vt  0.80526108  0.35009274
vt  0.76145697  0.23612954
vt  0.85032851  0.23612966
vt  0.85032856  0.32129556
vt  0.76145697  0.32129556
vt  0.67986172  0.32601649
vt  0.67986172  0.23140885
vt  0.74267489  0.43525857
vt  0.74267477  0.35009262
vt  0.68185854  0.34537193
vt  0.68185866  0.43997949
vt  0.68495727  0.13438290
vt  0.56704664  0.22810450
vt  0.68495727  0.13438301
vt  0.60082906  0.00665297
vt  0.79727709  0.18741277
vt  0.79727709  0.09280501
vt  0.71314818  0.09280501
vt  0.71314818  0.18741277
vt  0.87644058  0.74900687
vt  0.94654399  0.74661404
vt  0.94654399  0.95985979
vt  0.94654399  0.74661392
vt  0.90196818  0.87307036
vt  0.83106941  0.81691092
vt  0.83106959  0.92922974
vt  0.97551888  0.52113271
vt  0.96394902  0.47524703
vt  0.94085515  0.56707937
vt  0.96397185  0.56704891
vt  0.94083214  0.47527742
vt  0.92928529  0.52119374
vt  0.35374132  0.20092320
vt  0.44032738  0.22442286
vt  0.44032738  0.20092320
vt  0.44032747  0.22442286
vt  0.35374132  0.22442286
vt  0.43963405  0.14227659
vt  0.35304859  0.14227659
vt  0.35304859  0.18927592
vt  0.43963411  0.14227659
vt  0.43963405  0.18927592
vt  0.45901945  0.22482865
vt  0.44359818  0.22482865
vt  0.45901945  0.12791190
vt  0.44562510  0.25452816
vt  0.39532447  0.25452816
vt  0.39532447  0.23102851
vt  0.44562510  0.23102851

vn  0.00000000  0.00000000  1.00000000
vn  1.00000000 -0.00000200  0.00000000
vn -0.00000000 -0.97765797  0.21020100
vn  0.00000000  0.97765797  0.21020100
vn  0.00000000  0.88332897 -0.46875399
vn  1.00000000  0.00000000  0.00000000
vn -0.00000000 -0.88332897 -0.46875399
vn  0.00000000  0.00000000 -1.00000000
vn -1.00000000  0.00000100  0.00000000
vn -0.00000100 -1.00000000  0.00000000
vn  0.00000100  1.00000000  0.00000000
vn  1.00000000 -0.00000100  0.00000000
vn  0.17752901 -0.00000000 -0.98411602
vn -0.93128598  0.00000100 -0.36428800
vn -0.00000100 -0.98580402 -0.16790301
vn  0.00000100  0.98781002 -0.15566400
vn  0.98962301 -0.00000100 -0.14368600
vn  0.93465602 -0.00000100 -0.35555300
vn  0.02712000  0.99585003  0.08687100
vn  0.01541000 -0.99866199  0.04936800
vn -0.79869401  0.00000100  0.60173702
vn -0.48910099 -0.00000000 -0.87222701
vn  0.00000200  1.00000000  0.00000000
vn -0.00000200 -1.00000000  0.00000000
vn  1.00000000 -0.00000200  0.00000100
vn -0.28165099  0.00000000  0.95951700
vn  0.00000200 -0.00000000 -1.00000000
vn -0.02435600  0.99970299  0.00000000
vn -0.11715800  0.00000000  0.99311298
vn -0.02435900 -0.99970299  0.00000000
vn  0.11715800 -0.00000000 -0.99311298
vn  0.92797101  0.00000000 -0.37265101
vn  0.24989000 -0.96827400  0.00000000
vn  0.20475200  0.00000000  0.97881401
vn  0.24989000  0.96827400  0.00000000
vn -0.52534401  0.85088998  0.00000000
vn -0.48843601  0.00000000  0.87260002
vn -0.52534401 -0.85088998  0.00000000
vn -0.48843601  0.00000000 -0.87260002
vn -1.00000000  0.00000000  0.00000000
vn  0.12562799  0.99207699  0.00000000
vn  0.12562700 -0.99207801  0.00000000
vn -0.00000100 -0.97765797  0.21020100
vn  0.00170400  0.99999797  0.00057400
vn  0.00058100  0.50049698 -0.86573797
vn -0.00112300 -0.49950299 -0.86631203
vn -0.00170400 -0.99999797 -0.00057400
vn -0.00058100 -0.50049698  0.86573797
vn  0.00112300  0.49950200  0.86631203
vn -0.00000000 -0.70710701  0.70710701
vn  0.00000000  1.00000000  0.00000000
vn  0.00000000  0.70710701  0.70710701
vn -0.00000000 -1.00000000 -0.00000000
vn  0.45108801  0.63107800 -0.63107800
vn  0.45108801 -0.63107800  0.63107800
vn -0.45108801 -0.63107800  0.63107800
vn -0.45108801  0.63107800 -0.63107800
vn  0.45108801  0.63107800  0.63107800
vn  0.45108801 -0.63107800 -0.63107800
vn -0.45108801 -0.63107800 -0.63107800
vn -0.45108801  0.63107800  0.63107800
vn  0.99850303 -0.00000000  0.05469600
vn -0.99925703  0.00000100 -0.03854800
vn -0.92394000  0.00000100 -0.38253701
vn  0.88900203 -0.00000200  0.45790401
vn -0.00877000 -0.99975300  0.02041200
vn -0.00877000  0.99975300  0.02041300
vn  0.48821500  0.00000100 -0.87272298
vn -0.24679400  0.93711501  0.24679400
vn -0.24679400 -0.93711501  0.24679400
vn  0.00000000 -1.00000000  0.00000100
vn -0.91804999  0.00000000 -0.39646399

g Figure 1
s off
f 5/1/1 33/70/1 34/2/1 6/3/1
f 1/67/2 5/4/2 6/68/2 2/5/2
f 2/6/3 6/7/3 34/99/3 3/100/3
f 5/8/4 1/6/4 4/9/4 33/10/4
f 4/9/5 1/6/5 10/11/5 7/12/5
f 1/13/6 2/14/6 9/15/6 10/16/6
f 2/6/7 3/100/7 8/17/7 9/11/7
f 10/18/8 9/19/8 8/20/8 7/21/8
f 12/22/9 11/23/9 14/24/9 13/25/9
f 3/100/10 12/26/10 13/27/10 16/28/10
f 11/29/11 4/9/11 15/30/11 14/31/11
f 4/32/12 3/33/12 16/34/12 15/35/12
f 15/36/13 16/37/13 13/71/13 14/72/13
f 20/38/14 19/39/14 21/40/14 22/55/14
f 17/62/15 20/77/15 22/52/15 23/41/15
f 19/63/16 18/62/16 24/49/16 21/48/16
f 18/42/17 17/43/17 23/45/17 24/44/17
f 24/44/18 23/45/18 25/46/18 26/47/18
f 21/48/19 24/49/19 26/50/19 27/51/19
f 23/41/20 22/52/20 28/53/20 25/54/20
f 22/55/21 21/40/21 27/56/21 28/57/21
f 26/58/22 25/59/22 28/60/22 27/61/22
f 17/62/10 31/66/10 29/78/10 20/77/10
f 18/62/11 19/63/11 30/64/11 35/66/11
f 18/62/23 35/66/23 36/98/23 11/29/23
f 12/26/24 32/65/24 31/66/24 17/62/24
f 3/5/25 4/67/25 33/4/25 34/68/25
f 35/73/26 30/76/26 29/75/26
f 31/69/26 35/73/26 29/75/26
f 36/72/1 35/73/1 31/69/1
f 32/71/1 36/72/1 31/69/1
f 33/70/1 36/72/1 32/71/1
f 34/2/1 33/70/1 32/71/1
f 11/72/27 17/69/27 18/73/27
f 12/71/27 17/69/27 11/72/27
f 30/64/28 19/63/28 37/74/28 38/79/28
f 29/75/29 30/76/29 38/86/29 39/80/29
f 20/77/30 29/78/30 39/79/30 40/74/30
f 19/76/31 20/75/31 40/80/31 37/86/31
f 37/81/32 40/82/32 42/83/32 41/84/32
f 40/74/33 39/79/33 43/87/33 42/85/33
f 39/80/34 38/86/34 44/92/34 43/93/34
f 38/79/35 37/74/35 41/85/35 44/87/35
f 44/87/36 41/85/36 46/91/36 45/90/36
f 43/93/37 44/92/37 45/88/37 47/89/37
f 42/85/38 43/87/38 47/90/38 48/91/38
f 41/92/39 42/93/39 48/89/39 46/88/39
f 46/94/40 48/95/40 47/96/40 45/97/40
f 33/10/41 11/29/41 36/98/41
f 4/9/4 11/29/4 33/10/4
f 34/99/42 32/65/42 12/26/42
f 3/100/43 34/99/43 12/26/43
f 49/101/44 55/102/44 56/103/44 50/104/44
f 50/105/45 56/106/45 57/107/45 51/108/45
f 51/108/46 57/107/46 58/109/46 52/110/46
f 52/111/47 58/112/47 59/113/47 53/114/47
f 53/115/48 59/116/48 60/118/48 54/117/48
f 54/117/49 60/118/49 55/119/49 49/120/49
f 65/121/50 68/133/50 67/122/50 66/123/50
f 61/124/6 65/125/6 66/126/6 62/130/6
f 63/130/40 67/128/40 68/125/40 64/127/40
f 64/135/51 68/133/51 65/121/51 61/134/51
f 67/128/40 63/130/40 71/132/40 69/129/40
f 62/130/6 66/126/6 70/131/6 72/132/6
f 66/123/52 67/122/52 69/133/52 70/121/52
f 72/134/53 70/121/53 69/133/53 71/135/53
f 77/139/54 78/140/54 74/136/54 73/156/54
f 78/140/55 79/139/55 75/137/55 74/136/55
f 79/139/56 80/157/56 76/138/56 75/137/56
f 80/157/57 77/139/57 73/156/57 76/138/57
f 81/147/58 82/146/58 78/140/58 77/139/58
f 82/146/59 83/141/59 79/139/59 78/140/59
f 83/141/60 84/148/60 80/157/60 79/139/60
f 84/142/61 81/143/61 77/144/61 80/145/61
f 85/139/55 86/140/55 82/146/55 81/147/55
f 86/140/54 87/139/54 83/141/54 82/146/54
f 87/139/57 88/157/57 84/148/57 83/141/57
f 88/157/56 85/139/56 81/147/56 84/148/56
f 73/152/59 74/149/59 86/150/59 85/151/59
f 74/149/58 75/152/58 87/153/58 86/150/58
f 75/152/61 76/154/61 88/155/61 87/153/61
f 76/138/60 73/156/60 85/139/60 88/157/60
f 91/177/51 92/158/51 89/159/51 90/160/51
f 93/161/53 96/162/53 95/177/53 94/163/53
f 89/164/62 93/165/62 94/173/62 90/172/62
f 91/169/63 95/166/63 96/167/63 92/168/63
f 95/166/64 91/169/64 99/170/64 97/171/64
f 90/172/65 94/173/65 98/174/65 100/175/65
f 94/163/66 95/177/66 97/179/66 98/176/66
f 91/177/67 90/160/67 100/178/67 99/179/67
f 100/180/68 98/181/68 97/182/68 99/183/68
f 104/184/69 102/186/69 101/185/69
f 102/186/70 104/184/70 103/187/70
f 102/188/6 103/189/6 101/190/6
f 55/194/6 60/191/6 59/192/6
f 56/193/6 55/194/6 59/192/6
f 56/193/6 59/192/6 58/195/6
f 57/196/6 56/193/6 58/195/6
f 107/197/51 108/201/51 105/198/51 106/199/51
f 109/200/71 112/201/71 111/197/71 110/199/71
f 106/206/8 110/202/8 111/203/8 107/204/8
f 108/204/1 112/203/1 109/205/1 105/206/1
f 114/209/51 115/208/51 113/207/51
f 116/207/53 118/208/53 117/209/53
f 113/210/6 116/213/6 117/212/6 114/211/6
f 114/211/72 117/212/72 118/213/72 115/210/72
