# file generated by UVMapper
# NumVerts/NumTVerts/NumVNormals/NumFacets   8/18/6/6
# NumGroups/NumMaterials/NumRegions   0/0/0
# x/y/color/ppu   1024/528/0/50.00000000

v  21.05239868  1.66182995 -25.73070908
v  21.05239868  0.00779800 -25.73070908
v -25.73071289  0.00779900  21.05240059
v -25.73070145  1.66183197  21.05238914
v  25.73072052  1.66182995 -21.05241013
v  25.73069382  0.00779700 -21.05238342
v -21.05240631  0.00779900  25.73071861
v -21.05239677  1.66183197  25.73070717

vt  0.02173245  0.97842652
vt  0.02173245  0.94582671
vt  0.10741524  0.97842652
vt  0.96424556  0.97842658
vt  0.96424574  0.94582677
vt  0.10741574  0.94582671
vt  0.55639803  0.79204941
vt  0.64208126  0.79204941
vt  0.64208078  0.75944960
vt  0.55639803  0.75944960
vt  0.80251700  0.13255596
vt  0.03963935  0.81979251
vt  0.87856263  0.94582677
vt  0.87856239  0.97842658
vt  0.80251735  0.13255556
vt  0.73316497  0.05619596
vt  0.03963971  0.81979221
vt  0.10899189  0.89615208

vn -0.70710701 -0.00000100 -0.70710701
vn  0.70710701  0.00000000  0.70710701
vn  0.70710701 -0.00001100 -0.70710701
vn -0.00000000 -1.00000000 -0.00000000
vn -0.70710802  0.00000900  0.70710599
vn  0.00000000  1.00000000  0.00000000

g Figure 1
s off
f 1/1/1 2/2/1 3/13/1 4/14/1
f 5/3/2 8/4/2 7/5/2 6/6/2
f 1/7/3 5/8/3 6/9/3 2/10/3
f 2/16/4 6/11/4 7/18/4 3/12/4
f 3/13/5 7/5/5 8/4/5 4/14/5
f 5/15/6 1/16/6 4/17/6 8/18/6
