# file generated by UVMapper
# NumVerts/NumTVerts/NumVNormals/NumFacets   8/19/5/5
# NumGroups/NumMaterials/NumRegions   0/0/0
# x/y/color/ppu   750/1024/0/50.00000000

v  20.00000000  39.99999619 -0.07116700
v  20.00000000 -40.00000000 -0.07116700
v -20.00000191 -39.99999237 -0.07116700
v -19.99999237  40.00001526 -0.07116700
v  20.00000954  39.99997711  69.92883301
v  19.99998665 -40.00002289  69.92883301
v -20.00000763 -39.99998474  69.92883301
v -19.99999809  40.00000000  69.92883301

vt  0.98000002  0.97999978
vt  0.63818181  0.97999990
vt  0.63818175  0.47866678
vt  0.97999984  0.47866654
vt  0.02000000  0.97999990
vt  0.61818171  0.97999978
vt  0.61818171  0.47866654
vt  0.02000000  0.47866669
vt  0.97999996  0.02000000
vt  0.97999984  0.45866656
vt  0.63818175  0.45866656
vt  0.63818181  0.02000000
vt  0.02000000  0.47866672
vt  0.61818171  0.47866678
vt  0.61818171  0.97999990
vt  0.02000000  0.98000002
vt  0.98000002  0.45866656
vt  0.63818187  0.02000000
vt  0.63818181  0.45866656

vn  0.00000000  0.00000000  1.00000000
vn  1.00000000 -0.00000000  0.00000000
vn -0.00000100 -1.00000000 -0.00000000
vn -1.00000000  0.00000000 -0.00000000
vn  0.00000100  1.00000000  0.00000000

g Figure 1
s off
f 5/1/1 8/2/1 7/3/1 6/4/1
f 1/5/2 5/6/2 6/7/2 2/8/2
f 2/9/3 6/10/3 7/11/3 3/12/3
f 3/13/4 7/14/4 8/15/4 4/16/4
f 5/17/5 1/9/5 4/18/5 8/19/5
