# file generated by UVMapper
# NumVerts/NumTVerts/NumVNormals/NumFacets   15/18/15/15
# NumGroups/NumMaterials/NumRegions   0/0/0
# x/y/color/ppu   1024/1024/0/50.00000000

v -0.01440000  0.19088300  0.30104101
v -0.01440000 -0.61181402  0.30104101
v  3.43392992 -0.61181402  0.30104101
v  3.43392801  0.19088300  0.30104101
v -0.01440200  0.19088300 -0.30104500
v -0.01439900 -0.61181402 -0.30104500
v  3.43393111 -0.61181402 -0.30104500
v  3.43392897  0.19088300 -0.30104500
v  3.98956704  0.33800000 -0.16463800
v  3.98956609  0.33800000  0.16463400
v  3.98956800 -1.03530502 -0.00000200
v  8.92415619  0.33800301  0.16463500
v  8.92415714 -0.82341403 -0.00000100
v  8.92415714  0.33800301 -0.16463700
v  10.00432301  0.33758301  0.00000500

vt  0.62450218  0.02500017
vt  0.86151105  0.02500017
vt  0.86151105  0.35197926
vt  0.48898673  0.02500000
vt  0.02500000  0.02500017
vt  0.25197792  0.02500028
vt  0.02500000  0.35197926
vt  0.48898673  0.35197914
vt  0.25197792  0.35197937
vt  0.13848895  0.40466624
vt  0.62450218  0.35197902
vt  0.58807433  0.40466601
vt  0.58807439  0.87257594
vt  0.52541465  0.40466613
vt  0.97500002  0.40466624
vt  0.97499973  0.87257594
vt  0.52541488  0.87257594
vt  0.55674583  0.97500002

vn  0.00000000  0.00000000  1.00000000
vn  0.00000000  0.00000000 -1.00000000
vn -1.00000000 -0.00000200  0.00000000
vn  0.00000000 -1.00000000  0.00000000
vn -0.00000000  1.00000000 -0.00000000
vn  0.35010701 -0.07066900 -0.93404001
vn -0.25595200  0.96669000 -0.00000100
vn -0.60617799 -0.79532897 -0.00000100
vn  0.35010701 -0.07066900  0.93404001
vn  0.00276600 -0.12882200  0.99166399
vn -0.00000100  1.00000000 -0.00000100
vn  0.00276600 -0.12882200 -0.99166399
vn  0.14916100 -0.13878100  0.97902501
vn  0.14917199 -0.13878100 -0.97902399
vn  0.00038900  1.00000000 -0.00000100

g Figure 1
s off
f 1/1/1 2/2/1 3/3/1 4/11/1
f 5/4/2 8/8/2 7/9/2 6/6/2
f 1/1/3 5/4/3 6/6/3 2/5/3
f 2/5/4 6/6/4 7/9/4 3/7/4
f 5/4/5 1/1/5 4/11/5 8/8/5
f 7/9/6 8/8/6 9/14/6 11/10/6
f 8/8/7 4/11/7 10/12/7 9/14/7
f 3/7/8 7/9/8 11/10/8
f 4/11/9 3/3/9 11/15/9 10/12/9
f 10/12/10 11/15/10 13/16/10 12/13/10
f 9/14/11 10/12/11 12/13/11 14/17/11
f 11/15/12 9/14/12 14/17/12 13/16/12
f 12/13/13 13/16/13 15/18/13
f 13/16/14 14/17/14 15/18/14
f 14/17/15 12/13/15 15/18/15
