# file generated by UVMapper
# NumVerts/NumTVerts/NumVNormals/NumFacets   142/256/98/127
# NumGroups/NumMaterials/NumRegions   0/0/0
# x/y/color/ppu   1024/364/0/50.00000000

v  6.76394701  0.51139098 -1.40198696
v  6.76394701 -0.50875098 -1.40198696
v  2.96700907 -0.50875098 -1.80391395
v  2.96701002  0.51139098 -1.80391395
v  6.76394796  0.20948300 -0.54366797
v  6.76394606 -0.20684300 -0.54366797
v  2.96701002  0.25635600 -2.28450799
v  2.96700907 -0.25371599 -2.28450799
v  6.76394701 -0.25371599 -1.69575202
v  6.76394701  0.25635600 -1.69575202
v  1.95549500  0.51139301 -1.80391502
v  1.95549405 -0.50875002 -1.80391502
v  1.95549405 -0.50875002 -2.96771407
v  1.95549500  0.51139301 -2.96771407
v  2.96701002  0.51139098 -2.53762388
v  2.96700907 -0.50875098 -2.53762388
v  0.79495800 -0.50874698 -1.80391800
v  0.79495800  0.51139498 -1.80391800
v -0.82898498  0.51139700 -1.80392003
v -0.82898599 -0.50874603 -1.80392003
v -0.45562300  0.36098400 -2.75840306
v -0.45562401 -0.34617800 -2.75840306
v  0.65637398 -0.34617901 -2.75840211
v  0.65637499  0.36098301 -2.75840211
v  0.23254199 -0.45868701 -5.21842003
v  0.23254301  0.55951798 -5.21842098
v -1.26184201  0.55952001 -4.64365196
v -1.26184297 -0.45868501 -4.64365196
v  0.47559699 -0.50874698 -0.39972001
v  1.95705903  0.51048201 -0.39972001
v  1.95705700 -0.50784099 -0.39972001
v  0.47559801  0.51139498 -0.39972001
v -5.80815077  0.39310601 -2.79743099
v -5.80815077  0.39310601 -1.86991501
v -5.80815077 -0.39043999 -1.86991501
v -5.80815077 -0.39043999 -2.79743099
v -7.06310797  0.71698302 -5.92251015
v -7.06310797 -0.71431601 -5.92251015
v -7.06310797 -0.71431601 -1.60739899
v -7.06310797  0.71698302 -1.60739899
v -7.49149323  0.45249501 -1.84718597
v -7.49149323  0.45249501 -5.68272209
v -7.49149323 -0.44982901 -1.84718597
v -7.49149323 -0.44982901 -5.68272209
v  6.43425989  0.28620899 -0.98626000
v  6.43425989  0.28639799 -1.31533206
v  6.43425989  0.00150800 -1.48003101
v  6.43425989 -0.28356999 -1.31565905
v  6.43425989 -0.28375900 -0.98658699
v  6.43425989  0.00113100 -0.82188803
v  8.37521553  0.27892300 -0.98760402
v  8.37521553  0.27911201 -1.31667495
v  8.37521553 -0.00577700 -1.48137403
v  8.37521553 -0.29085600 -1.31700206
v  8.37521553 -0.29104501 -0.98793101
v  8.37521553 -0.00615600 -0.82323200
v  1.16713500  0.39309201 -0.45307100
v  1.16713500  0.00132000 -0.45307100
v  0.50731701  0.00132000 -0.45307100
v  0.50731701  0.39309299 -0.45307100
v  1.16713500  0.39309201  0.03664600
v  1.16713500  0.00131900 -0.35512701
v  0.50731701  0.00132000 -0.35512701
v  0.50731701  0.39309201  0.03664600
v  0.50731701 -0.39045301  0.03664600
v  1.16713500 -0.39045399  0.03664600
v  0.50731701 -0.39045301 -0.45307100
v  1.16713500 -0.39045301 -0.45307100
v  0.62406600  0.00132000 -0.36236000
v  0.73190397  0.00132000 -0.28527901
v  0.62406600  0.00132000 -0.20819700
v  0.51622802  0.00132000 -0.28527901
v  0.62406600  0.38672701  0.02304800
v  0.73190397  0.30964601  0.02304800
v  0.62406600  0.23256400  0.02304800
v  0.51622802  0.30964601  0.02304800
v  0.62406600  0.00131900  0.40845501
v  0.73190397  0.00131900  0.33137399
v  0.62406600  0.00131900  0.25429201
v  0.51622802  0.00131900  0.33137399
v  0.62406600 -0.38408801  0.02304800
v  0.73190397 -0.30700701  0.02304800
v  0.62406600 -0.22992501  0.02304800
v  0.51622802 -0.30700701  0.02304800
v  2.80359602  0.36241299 -2.24567199
v  2.88278699  0.36241299 -4.06089211
v  2.25543690  0.36241299 -4.29846478
v  2.17624593  0.36241299 -2.24567103
v  2.80359602 -0.36241299 -2.24567199
v  2.88278604 -0.36241400 -4.06089306
v  2.25543594 -0.36241400 -4.29846478
v  2.17624497 -0.36241299 -2.24567199
v  3.03576207 -0.40259099 -6.18318605
v  3.68554401 -0.40259099 -5.72963905
v  3.03576207  0.40259200 -6.18318605
v  3.68554401  0.40259200 -5.72963715
v  8.37101936  0.13317201 -0.98978400
v  8.37101936 -0.00000000  0.02156300
v  8.37101936 -0.13317201 -0.98978502
v  8.04034424 -0.00000000 -0.97843599
v  2.14703989  0.20000000 -2.61716008
v  2.14703989  0.20000000 -2.81715989
v  0.46640101  0.20000000 -2.81715989
v  0.46640101  0.20000000 -2.61716008
v  2.14704108 -0.20000000 -2.61716008
v  2.14703989 -0.20000000 -2.81715989
v  0.46640000 -0.20000000 -2.81715989
v  0.46640101 -0.20000000 -2.61716008
v  1.29760098  0.10000000 -1.72243595
v  1.29760098  0.10000000 -2.54727101
v  0.94139200  0.10000000 -1.72243595
v  1.29760098 -0.10000000 -1.72243595
v  1.29760098 -0.10000000 -2.54727101
v  0.94139200 -0.10000000 -1.72243595
v  5.89878798  0.20619400 -1.72035003
v  6.06761980  0.35010499 -3.02334404
v  5.31756783  0.35010499 -3.02334309
v  5.48640013  0.20619400 -1.72034895
v  5.89878798 -0.20619400 -1.72035003
v  6.06761980 -0.35010499 -3.02334404
v  5.31756783 -0.35010499 -3.02334309
v  5.48640013 -0.20619400 -1.72034895
v  5.48640013 -0.20619400 -4.32633686
v  5.89878798 -0.20619400 -4.32633686
v  5.48640013  0.20619400 -4.32633686
v  5.89878798  0.20619400 -4.32633686
v  8.25229931 -0.30700701  0.02304800
v  8.36013794 -0.22992501  0.02304800
v  8.46797562 -0.30700701  0.02304800
v  8.36013794 -0.38408801  0.02304800
v  8.25229931  0.00131900  0.33137399
v  8.36013794  0.00131900  0.25429201
v  8.46797562  0.00131900  0.33137399
v  8.36013794  0.00131900  0.40845501
v  8.25229931  0.30964601  0.02304800
v  8.36013794  0.23256400  0.02304800
v  8.46797562  0.30964601  0.02304800
v  8.36013794  0.38672701  0.02304800
v  8.25229931  0.00132000 -0.28527901
v  8.36013794  0.00132000 -0.20819700
v  8.46797562  0.00132000 -0.28527901
v  8.36013794  0.00132000 -0.36236000

vt  0.87137336  0.79938936
vt  0.58825052  0.71534479
vt  0.87137330  0.75061095
vt  0.95902139  0.53552896
vt  0.95902139  0.48675057
vt  0.90846694  0.45137778
vt  0.87137330  0.68074864
vt  0.58825052  0.69761419
vt  0.64773607  0.53309315
vt  0.87137336  0.68074864
vt  0.87137330  0.58018452
vt  0.87137330  0.54576588
vt  0.64773613  0.47678486
vt  0.90846694  0.57090169
vt  0.89116442  0.48125872
vt  0.89116442  0.54102081
vt  0.64773607  0.47678486
vt  0.87137330  0.80488122
vt  0.87137330  0.74511909
vt  0.64773607  0.74511909
vt  0.64773613  0.80488122
vt  0.46494377  0.85178864
vt  0.46494377  0.97131270
vt  0.39639679  0.97131270
vt  0.39639679  0.85178864
vt  0.58815849  0.53309309
vt  0.58815849  0.39673766
vt  0.64773607  0.44712877
vt  0.64773613  0.44712877
vt  0.58815855  0.39673766
vt  0.46494386  0.97131246
vt  0.46494386  0.85178852
vt  0.42172879  0.85178852
vt  0.42172879  0.97131246
vt  0.64773613  0.83476210
vt  0.64773607  0.71523815
vt  0.58815849  0.71523827
vt  0.58815855  0.83476233
vt  0.40886530  0.29737431
vt  0.40886530  0.41689837
vt  0.35264665  0.39927536
vt  0.35264665  0.31642145
vt  0.44614521  0.42126140
vt  0.44614527  0.42126140
vt  0.40886548  0.41689813
vt  0.40886548  0.29737419
vt  0.35264671  0.31642133
vt  0.35264671  0.39927530
vt  0.20775256  0.30323941
vt  0.20775251  0.42253643
vt  0.51164126  0.42126149
vt  0.48667777  0.13303576
vt  0.39865950  0.20037802
vt  0.51164120  0.42126149
vt  0.39865944  0.20037802
vt  0.48667777  0.13303587
vt  0.24160615  0.42253667
vt  0.24160615  0.30323964
vt  0.35607418  0.27161235
vt  0.35607418  0.15231533
vt  0.26805583  0.15231557
vt  0.26805592  0.27161258
vt  0.51980370  0.53309268
vt  0.42415449  0.53309244
vt  0.54764992  0.97120601
vt  0.54764992  0.85189515
vt  0.58825070  0.83465564
vt  0.51980370  0.83476257
vt  0.51980370  0.71523863
vt  0.50099355  0.69761419
vt  0.13088483  0.52536023
vt  0.50099355  0.71523863
vt  0.50099355  0.83476257
vt  0.13088483  0.82090336
vt  0.42415440  0.53309244
vt  0.42415449  0.83476281
vt  0.42415440  0.71523875
vt  0.40642631  0.95745373
vt  0.40642631  0.86565036
vt  0.22236116  0.82770371
vt  0.22236116  0.99540049
vt  0.13088483  0.41668871
vt  0.13088483  0.72909999
vt  0.05696867  0.55611765
vt  0.05696867  0.05054184
vt  0.03173706  0.07863637
vt  0.03173706  0.52802324
vt  0.05696867  0.69115335
vt  0.05696867  0.85885012
vt  0.03173706  0.72214168
vt  0.03173706  0.82786161
vt  0.10588096  0.13484308
vt  0.10588096  0.02912313
vt  0.33179152  0.02912313
vt  0.33179152  0.13484308
vt  0.58825070  0.69761419
vt  0.58815855  0.53309309
vt  0.64773613  0.53309315
vt  0.87999427  0.63094616
vt  0.99431503  0.63078874
vt  0.99431503  0.59223348
vt  0.87999427  0.59239078
vt  0.88073182  0.69649136
vt  0.99505299  0.69563770
vt  0.88073182  0.66311246
vt  0.99505299  0.66225892
vt  0.99505299  0.62885797
vt  0.88073182  0.62971163
vt  0.87999427  0.59235245
vt  0.99431503  0.59219509
vt  0.99431503  0.63075042
vt  0.87999427  0.63090789
vt  0.88073182  0.62968946
vt  0.99505299  0.62883580
vt  0.99505299  0.66221452
vt  0.88073182  0.66306829
vt  0.99505299  0.69561553
vt  0.88073182  0.69646919
vt  0.82858884  0.97901261
vt  0.85743284  0.97901261
vt  0.82858884  0.93311101
vt  0.83435762  0.93311101
vt  0.82858884  0.97901273
vt  0.93082839  0.86795479
vt  0.85743284  0.88720930
vt  0.83435762  0.93311089
vt  0.85743284  0.88720918
vt  0.82858884  0.88720930
vt  0.96969128  0.87943023
vt  0.93082839  0.87943023
vt  0.96969128  0.92533195
vt  0.96969128  0.86795479
vt  0.93082839  0.92533195
vt  0.94405639  0.88761395
vt  0.94405639  0.92373878
vt  0.93770480  0.87858284
vt  0.92073369  0.96491992
vt  0.92708528  0.91976398
vt  0.92708528  0.95588881
vt  0.92073369  0.94685757
vt  0.91438210  0.95588881
vt  0.92073369  0.87460816
vt  0.92708528  0.88363928
vt  0.93770480  0.95083231
vt  0.94405639  0.95986354
vt  0.91438210  0.88363928
vt  0.91438210  0.91976398
vt  0.92073369  0.91976398
vt  0.93770480  0.96889460
vt  0.93135327  0.95986354
vt  0.93770480  0.92373878
vt  0.92708528  0.91976410
vt  0.92073369  0.91976410
vt  0.92073369  0.89267051
vt  0.93770480  0.89664525
vt  0.93135327  0.88761395
vt  0.93135327  0.92373878
vt  0.70889020  0.47620156
vt  0.74584061  0.47620144
vt  0.70889014  0.47620144
vt  0.71193767  0.10683495
vt  0.71193767  0.02191144
vt  0.60502237  0.10683495
vt  0.71193773  0.10683495
vt  0.59102947  0.02191132
vt  0.59102947  0.10683495
vt  0.48002070  0.11154252
vt  0.48002070  0.01720405
vt  0.60502225  0.02191132
vt  0.50673431  0.01720405
vt  0.50673449  0.11154252
vt  0.75050485  0.26352289
vt  0.71355450  0.23568805
vt  0.79778671  0.06800596
vt  0.75050497  0.26352301
vt  0.79778671  0.06800619
vt  0.75951505  0.01486659
vt  0.71219361  0.20805174
vt  0.71219361  0.11371328
vt  0.67392164  0.11371328
vt  0.67392164  0.20805174
vt  0.89416325  0.82590818
vt  0.91363990  0.82457858
vt  0.91363990  0.94307202
vt  0.91363990  0.82457846
vt  0.85654449  0.93295634
vt  0.79697669  0.91735339
vt  0.79697675  0.94855934
vt  0.95796150  0.77672446
vt  0.96764296  0.74332345
vt  0.95794225  0.70994473
vt  0.95796150  0.77569777
vt  0.95794225  0.70891804
vt  0.92887884  0.74234116
vt  0.93857944  0.77571994
vt  0.93856019  0.70894021
vt  0.51447153  0.28398708
vt  0.61346084  0.28398708
vt  0.61346084  0.30741984
vt  0.51447153  0.30741984
vt  0.61419797  0.30582750
vt  0.51521051  0.35269308
vt  0.51521051  0.30582750
vt  0.61419797  0.35269308
vt  0.63869178  0.37118149
vt  0.61771131  0.37118149
vt  0.63869178  0.27454060
vt  0.65199739  0.24567536
vt  0.60341531  0.26910812
vt  0.60341531  0.24567536
vt  0.65199739  0.26910812
vt  0.94960427  0.40838706
vt  0.97389364  0.40838689
vt  0.98383766  0.25572291
vt  0.92513341  0.30311084
vt  0.92513341  0.25479379
vt  0.84838802  0.23793265
vt  0.92513353  0.25479379
vt  0.92513353  0.30311084
vt  0.84838808  0.23793265
vt  0.84838808  0.31997204
vt  0.77164257  0.25479379
vt  0.84838802  0.31997204
vt  0.77164257  0.30311084
vt  0.94960427  0.10305901
vt  0.93966013  0.25572300
vt  0.97389364  0.10305901
vt  0.92519408  0.39140654
vt  0.92519408  0.34308940
vt  0.90090466  0.34308940
vt  0.90090466  0.39140654
vt  0.88393265  0.91155046
vt  0.87758106  0.91155046
vt  0.87758106  0.88445687
vt  0.88393265  0.87542564
vt  0.89676577  0.87447613
vt  0.90311736  0.88350725
vt  0.89676577  0.96478790
vt  0.89041412  0.95575684
vt  0.89676577  0.94672561
vt  0.90311736  0.95575684
vt  0.87122935  0.91155034
vt  0.87758094  0.91155034
vt  0.87758094  0.95670629
vt  0.87122935  0.94767517
vt  0.87758094  0.93864393
vt  0.87758106  0.91155034
vt  0.87758106  0.93864393
vt  0.88393265  0.94767517
vt  0.88393265  0.91155034
vt  0.87758106  0.95670629
vt  0.89041412  0.91963208
vt  0.89041412  0.88350725
vt  0.89676577  0.89253855
vt  0.90311736  0.91963208
vt  0.89676577  0.91963208

vn  0.02993300 -0.00000000  0.99955201
vn  1.00000000 -0.00000200  0.00000100
vn  0.03022100 -0.98884702  0.14583901
vn  0.03022100  0.98884702  0.14583901
vn  0.07157900  0.83296502 -0.54867601
vn  1.00000000  0.00000000  0.00000000
vn  0.07157900 -0.83296502 -0.54867601
vn  0.15323000 -0.00000000 -0.98819101
vn -1.00000000  0.00000100  0.00000000
vn -0.00000100 -1.00000000  0.00000000
vn  0.00000100  1.00000000  0.00000000
vn  1.00000000 -0.00000100  0.00000000
vn  0.39129099 -0.00000000 -0.92026699
vn -0.93128598  0.00000100 -0.36428800
vn -0.00000100 -0.98580402 -0.16790301
vn  0.00000100  0.98781002 -0.15566400
vn  0.98962301 -0.00000100 -0.14368600
vn  0.98548102 -0.00000100 -0.16978700
vn  0.01889500  0.99614400  0.08567900
vn  0.01073400 -0.99875700  0.04868100
vn -0.91945302  0.00000100  0.39320001
vn -0.35898200 -0.00000000 -0.93334502
vn  0.00000200  1.00000000  0.00000000
vn -0.00000200 -1.00000000 -0.00000000
vn  0.81182700 -0.00000100  0.58389801
vn  0.00000000  0.00000000  1.00000000
vn  0.00000200 -0.00000000 -1.00000000
vn -0.02392600  0.99962401  0.01338700
vn -0.22781500  0.00000000  0.97370398
vn -0.02392900 -0.99962401  0.01338700
vn  0.19567600 -0.00000000 -0.98066902
vn  0.92797101  0.00000000 -0.37265101
vn  0.24989000 -0.96827400  0.00000000
vn  0.20475200  0.00000000  0.97881401
vn  0.24989000  0.96827400  0.00000000
vn -0.52534401  0.85088998  0.00000000
vn -0.48843601  0.00000000  0.87260002
vn -0.52534401 -0.85088998  0.00000000
vn -0.48843601  0.00000000 -0.87260002
vn -1.00000000  0.00000000  0.00000000
vn  0.00061700  1.00000000  0.00064800
vn  0.00000100  1.00000000  0.00064900
vn  0.00061200 -1.00000000  0.00064600
vn -0.00000100 -1.00000000  0.00064700
vn  0.00375400  0.99999303  0.00057400
vn  0.00128000  0.50049698 -0.86573702
vn -0.00247500 -0.49950099 -0.86631000
vn -0.00375400 -0.99999303 -0.00057400
vn -0.00128000 -0.50049698  0.86573702
vn  0.00247500  0.49950099  0.86631000
vn -0.00000000 -0.70710701  0.70710701
vn  0.00000000  1.00000000  0.00000000
vn  0.00000000  0.70710701  0.70710701
vn -0.00000000 -1.00000000 -0.00000000
vn  0.45108801  0.63107800 -0.63107800
vn  0.45108801 -0.63107800  0.63107800
vn -0.45108801 -0.63107800  0.63107800
vn -0.45108801  0.63107800 -0.63107800
vn  0.45108801  0.63107800  0.63107800
vn  0.45108801 -0.63107800 -0.63107800
vn -0.45108801 -0.63107800 -0.63107800
vn -0.45108801  0.63107800  0.63107800
vn  0.99905002 -0.00000000  0.04358500
vn -0.99925703  0.00000100 -0.03854800
vn -0.92394000  0.00000100 -0.38253701
vn  0.90115201 -0.00000200  0.43350300
vn -0.00985800 -0.99978501  0.01821700
vn -0.00985800  0.99978501  0.01821700
vn  0.57236099  0.00000000 -0.82000202
vn -0.36721799  0.92217499  0.12143000
vn -0.36721700 -0.92217499  0.12143000
vn  0.00000000 -1.00000000  0.00000100
vn -0.00000000 -0.00000000 -1.00000000
vn -0.91804999  0.00000000 -0.39646399
vn  0.00000000  0.99395603  0.10977900
vn  0.00000000 -0.99395603  0.10977900
vn  0.99171001 -0.00000000  0.12849800
vn -0.99171001 -0.00000000  0.12849800
vn -0.99171001  0.00000000 -0.12849800
vn  0.99171001  0.00000000 -0.12849800
vn -0.00000000 -0.99395603 -0.10977900
vn -0.00000000  0.99395603 -0.10977900
vn -0.00000100  0.00000100 -1.00000000
vn -0.45108601 -0.63107902 -0.63107902
vn -0.45108601  0.63107902  0.63107902
vn  0.45109001  0.63107800  0.63107800
vn  0.45108899 -0.63107800 -0.63107800
vn -0.45108601 -0.63107902  0.63107902
vn -0.45108700  0.63107902 -0.63107902
vn  0.45109001  0.63107800 -0.63107699
vn  0.45108899 -0.63107800  0.63107800
vn -0.45108700 -0.63107902 -0.63107902
vn  0.45109001 -0.63107800 -0.63107699
vn  0.45108899  0.63107800  0.63107800
vn -0.45108601  0.63107902 -0.63107902
vn -0.45108700 -0.63107902  0.63107902
vn  0.45109001 -0.63107800  0.63107800
vn  0.45108899  0.63107800 -0.63107800

g Figure 1
s off

f 5/1/1 30/67/1 31/2/1 6/3/1
f 1/14/2 5/4/2 6/5/2 2/6/2
f 2/11/3 6/7/3 31/8/3 3/9/3
f 5/10/4 1/11/4 4/98/4 30/96/4
f 4/98/5 1/11/5 10/12/5 7/13/5
f 1/14/6 2/6/6 9/15/6 10/16/6
f 2/11/7 3/9/7 8/17/7 9/12/7
f 10/18/8 9/19/8 8/20/8 7/21/8
f 12/22/9 11/23/9 14/24/9 13/25/9
f 3/9/10 12/26/10 13/27/10 16/28/10
f 11/97/11 4/98/11 15/29/11 14/30/11
f 4/31/12 3/32/12 16/33/12 15/34/12
f 15/35/13 16/36/13 13/37/13 14/38/13
f 20/39/14 19/40/14 21/41/14 22/42/14
f 17/63/15 20/75/15 22/43/15 23/54/15
f 19/64/16 18/63/16 24/51/16 21/44/16
f 18/45/17 17/46/17 23/47/17 24/48/17
f 24/48/18 23/47/18 25/49/18 26/50/18
f 21/44/19 24/51/19 26/52/19 27/53/19
f 23/54/20 22/43/20 28/55/20 25/56/20
f 22/42/21 21/41/21 27/57/21 28/58/21
f 26/59/22 25/60/22 28/61/22 27/62/22
f 17/63/10 29/70/10 20/75/10
f 18/63/11 19/64/11 32/70/11
f 18/63/23 32/70/23 11/97/23
f 12/26/24 29/70/24 17/63/24
f 3/32/25 4/31/25 30/65/25 31/66/25
f 30/67/26 32/73/26 29/72/26
f 31/2/26 30/67/26 29/72/26
f 11/38/27 17/69/27 18/68/27
f 12/37/27 17/69/27 11/38/27
f 32/70/28 19/64/28 33/82/28 34/71/28
f 29/72/29 32/73/29 34/74/29 35/83/29
f 20/75/30 29/70/30 35/71/30 36/82/30
f 19/76/31 20/77/31 36/83/31 33/74/31
f 33/78/32 36/79/32 38/80/32 37/81/32
f 36/82/33 35/71/33 39/84/33 38/85/33
f 35/83/34 34/74/34 40/89/34 39/88/34
f 34/71/35 33/82/35 37/85/35 40/84/35
f 40/84/36 37/85/36 42/86/36 41/87/36
f 39/88/37 40/89/37 41/91/37 43/90/37
f 38/85/38 39/84/38 43/87/38 44/86/38
f 37/89/39 38/88/39 44/90/39 42/91/39
f 42/92/40 44/93/40 43/94/40 41/95/40
f 30/96/41 11/97/41 32/70/41
f 4/98/42 11/97/42 30/96/42
f 31/8/43 29/70/43 12/26/43
f 3/9/44 31/8/44 12/26/44
f 45/99/45 51/100/45 52/101/45 46/102/45
f 46/103/46 52/104/46 53/106/46 47/105/46
f 47/105/47 53/106/47 54/107/47 48/108/47
f 48/109/48 54/110/48 55/111/48 49/112/48
f 49/113/49 55/114/49 56/115/49 50/116/49
f 50/116/50 56/115/50 51/117/50 45/118/50
f 61/131/51 64/133/51 63/130/51 62/129/51
f 57/119/6 61/120/6 62/126/6 58/121/6
f 59/121/40 63/122/40 64/120/40 60/123/40
f 60/124/52 64/133/52 61/131/52 57/132/52
f 63/122/40 59/121/40 67/128/40 65/125/40
f 58/121/6 62/126/6 66/127/6 68/128/6
f 62/129/53 63/130/53 65/133/53 66/131/53
f 68/132/54 66/131/54 65/133/54 67/124/54
f 73/151/55 74/135/55 70/134/55 69/136/55
f 74/135/56 75/151/56 71/155/56 70/134/56
f 75/151/57 76/157/57 72/156/57 71/155/57
f 76/157/58 73/151/58 69/136/58 72/156/58
f 77/148/59 78/138/59 74/139/59 73/137/59
f 78/138/60 79/148/60 75/140/60 74/139/60
f 79/148/61 80/147/61 76/141/61 75/140/61
f 80/147/62 77/148/62 73/137/62 76/141/62
f 81/142/56 82/143/56 78/138/56 77/148/56
f 82/135/55 83/151/55 79/144/55 78/145/55
f 83/154/58 84/146/58 80/147/58 79/148/58
f 84/157/57 81/151/57 77/149/57 80/150/57
f 69/136/60 70/134/60 82/135/60 81/151/60
f 70/152/59 71/153/59 83/154/59 82/143/59
f 71/155/62 72/156/62 84/157/62 83/151/62
f 72/156/61 69/136/61 81/151/61 84/157/61
f 87/173/52 88/158/52 85/159/52 86/175/52
f 89/159/54 92/160/54 91/173/54 90/172/54
f 85/161/63 89/162/63 90/169/63 86/163/63
f 87/166/64 91/165/64 92/162/64 88/164/64
f 91/165/65 87/166/65 95/167/65 93/168/65
f 86/163/66 90/169/66 94/170/66 96/171/66
f 90/172/67 91/173/67 93/177/67 94/174/67
f 87/173/68 86/175/68 96/176/68 95/177/68
f 96/178/69 94/179/69 93/180/69 95/181/69
f 100/182/70 98/184/70 97/183/70
f 98/184/71 100/182/71 99/185/71
f 98/186/6 99/187/6 97/188/6
f 51/189/6 56/190/6 55/191/6
f 52/195/6 51/192/6 55/193/6
f 52/195/6 55/193/6 54/196/6
f 53/194/6 52/195/6 54/196/6
f 103/197/52 104/200/52 101/199/52 102/198/52
f 105/199/72 108/200/72 107/197/72 106/198/72
f 102/204/73 106/201/73 107/203/73 103/202/73
f 104/202/26 108/203/26 105/201/26 101/204/26
f 110/207/52 111/206/52 109/205/52
f 112/205/54 114/206/54 113/207/54
f 109/211/6 112/208/6 113/210/6 110/209/6
f 110/209/74 113/210/74 114/208/74 111/211/74
f 117/226/75 118/212/75 115/213/75 116/214/75
f 119/213/76 122/212/76 121/226/76 120/214/76
f 115/215/77 119/216/77 120/217/77 116/223/77
f 117/221/78 121/220/78 122/218/78 118/219/78
f 121/220/79 117/221/79 125/224/79 123/222/79
f 116/223/80 120/217/80 124/222/80 126/224/80
f 120/214/81 121/226/81 123/225/81 124/227/81
f 117/226/82 116/214/82 126/227/82 125/225/82
f 126/228/83 124/229/83 123/230/83 125/231/83
f 139/253/84 142/236/84 130/256/84 127/252/84
f 140/254/85 139/253/85 127/252/85 128/256/85
f 141/232/86 140/233/86 128/234/86 129/235/86
f 142/236/87 141/237/87 129/255/87 130/256/87
f 127/252/88 130/256/88 134/238/88 131/239/88
f 128/256/89 127/252/89 131/239/89 132/240/89
f 129/255/90 128/256/90 132/240/90 133/241/90
f 130/256/91 129/255/91 133/241/91 134/238/91
f 131/242/85 134/243/85 138/244/85 135/245/85
f 132/243/92 131/242/92 135/245/92 136/246/92
f 133/250/93 132/247/93 136/248/93 137/249/93
f 134/247/94 133/250/94 137/249/94 138/251/94
f 135/252/95 138/256/95 142/236/95 139/253/95
f 136/256/96 135/252/96 139/253/96 140/254/96
f 137/255/97 136/256/97 140/254/97 141/237/97
f 138/256/98 137/255/98 141/237/98 142/236/98
