# file generated by UVMapper
# NumVerts/NumTVerts/NumVNormals/NumFacets   42/49/40/40
# NumGroups/NumMaterials/NumRegions   0/0/0
# x/y/color/ppu   1024/1024/0/50.00000000

v  3.49624109  7.52641678 -2.91875601
v  3.49623990  7.52641678  1.16448498
v  3.49623990  4.96547794 -0.87713498
v -2.53170896  7.52641821  0.58967698
v  3.49624109  10.08735561 -0.87713498
v  14.36911678  10.19522667 -0.87713498
v  14.36911583  4.85760498 -0.87713498
v  14.36911392  7.52641582  0.19684599
v  16.11682320  7.52641582 -2.08555603
v  20.17025375  7.52641487  0.58967698
v -1.02472198  7.52641678 -1.56790102
v  3.49623990  5.60571289 -2.40834999
v  9.22843456  7.52641582 -3.41947103
v  3.49624205  9.44712067 -2.40834999
v  3.49623895  5.60571289  0.65408099
v -1.02472198  7.52641821  2.01384807
v  3.49624109  9.44712067  0.65408099
v  9.22843361  7.52641582  0.19838899
v -1.02472198  5.60571384  0.22297400
v  9.22843361  4.93850899 -1.61054099
v -1.02472103  9.44712162  0.22297400
v  9.22843456  10.11432266 -1.61054099
v  14.36911678  9.52802372 -0.34052700
v  18.00281143  9.58195972  0.22297400
v  16.11682320  9.52802372 -1.54818296
v  16.11682320  5.52480698 -1.54818296
v  18.00280952  5.47087097  0.22297400
v  14.36911392  5.52480698 -0.34052700
v  19.37667847  7.52641487  1.20265996
v  18.20446968  7.52641487 -0.22391300
v  9.22843361  5.58548594 -2.96723890
v  0.14737900  6.10367393 -1.31187701
v  0.14737999  8.94916058 -1.31187701
v  9.22843456  9.46734619 -2.96723890
v  9.22843361  5.58548594 -0.25384399
v  0.14737900  6.10367393  1.18739903
v  0.14737999  8.94916153  1.18739903
v  9.22843361  9.46734619 -0.25384399
v  17.06074142  9.03306007  0.59910399
v  17.06073952  6.01977110  0.59910399
v  17.06074142  9.03306007 -0.58914500
v  17.06074142  6.01977205 -0.58914500

vt  0.70134968  0.90396506
vt  0.70610368  0.84874183
vt  0.62502354  0.95976979
vt  0.62667245  0.90396500
vt  0.83605039  0.90396500
vt  0.73762727  0.95918822
vt  0.74257213  0.90396506
vt  0.72172475  0.83033413
vt  0.62502360  0.84816027
vt  0.61123973  0.82955867
vt  0.49976712  0.84816027
vt  0.73762727  0.84874183
vt  0.72885036  0.84874189
vt  0.71961915  0.86305898
vt  0.72995478  0.90396512
vt  0.71863151  0.90396506
vt  0.73565698  0.86305898
vt  0.73873550  0.90396512
vt  0.73565698  0.94487113
vt  0.71961915  0.94487113
vt  0.72172475  0.97759598
vt  0.70610362  0.95918822
vt  0.72885036  0.95918828
vt  0.49976712  0.95976979
vt  0.61123967  0.97837132
vt  0.96514469  0.97837132
vt  0.85367215  0.95976979
vt  0.90228987  0.98069745
vt  0.89974439  0.94728339
vt  0.90701723  0.96151429
vt  0.90228987  0.82723254
vt  0.85367215  0.84816027
vt  0.96514475  0.82955867
vt  0.90701723  0.84641564
vt  0.89974439  0.86064672
vt  0.89146936  0.90396500
vt  0.89684957  0.84641564
vt  0.89169633  0.86064661
vt  0.89046347  0.90396500
vt  0.89169633  0.94728339
vt  0.89684957  0.96151429
vt  0.91106880  0.90396500
vt  0.97892863  0.84816027
vt  0.98057741  0.90396500
vt  0.97892863  0.95976979
vt  0.89486217  0.84486490
vt  0.89764959  0.90396500
vt  0.89413512  0.90396500
vt  0.89486217  0.96306509

vn -0.08974400 -0.24090400 -0.96639103
vn -0.30007699 -0.31185099 -0.90149999
vn -0.30007699  0.31185099 -0.90149999
vn -0.08974400  0.24090400 -0.96639103
vn  0.15624100 -0.23891000  0.95839000
vn  0.15624100  0.23890901  0.95839000
vn  0.14384300  0.32351601  0.93522501
vn  0.14384300 -0.32351699  0.93522501
vn -0.04959000 -0.91225398 -0.40661299
vn  0.05444500 -0.91202301  0.40651000
vn -0.04105200 -0.90165597  0.43050200
vn -0.24324299 -0.87531298 -0.41792399
vn -0.66117001 -0.51162797 -0.54871798
vn -0.46506599 -0.60371900  0.64748502
vn -0.46506599  0.60371900  0.64748502
vn -0.66117001  0.51162797 -0.54871798
vn -0.24324299  0.87531298 -0.41792399
vn -0.04105100  0.90165597  0.43050101
vn  0.05444500  0.91202301  0.40651000
vn -0.04959000  0.91225398 -0.40661299
vn  0.07818100  0.86601001 -0.49387699
vn -0.04712800  0.82058197  0.56958199
vn -0.12519000  0.65576798  0.74451101
vn  0.39471900  0.80396301 -0.44479299
vn -0.04712800 -0.82058197  0.56958199
vn  0.07818000 -0.86601001 -0.49387699
vn  0.39471900 -0.80396301 -0.44479200
vn -0.12519000 -0.65576798  0.74450999
vn  0.00688600  0.24344900  0.96988899
vn  0.00688600 -0.24344900  0.96988899
vn -0.23227000 -0.15874600  0.95960897
vn -0.23227000  0.15874700  0.95960897
vn  0.18925899 -0.23905499 -0.95238298
vn  0.18925899  0.23905499 -0.95238298
vn  0.68059802  0.25557399 -0.68663502
vn  0.68059802 -0.25557399 -0.68663502
vn  0.27178800 -0.55601901  0.78547698
vn  0.44100401 -0.23176999 -0.86706299
vn  0.44100401  0.23176900 -0.86706299
vn  0.27178800  0.55601901  0.78547698

g Figure 1
s off


f 1/1/1 13/4/1 31/9/1 12/2/1
f 1/1/2 12/2/2 32/14/2 11/16/2
f 1/1/3 11/16/3 33/20/3 14/22/3
f 1/1/4 14/22/4 34/3/4 13/4/4
f 2/7/5 15/12/5 35/32/5 18/5/5
f 2/7/6 18/5/6 38/27/6 17/6/6
f 2/7/7 17/6/7 37/19/7 16/18/7
f 2/7/8 16/18/8 36/17/8 15/12/8
f 3/8/9 12/2/9 31/9/9 20/10/9
f 3/8/10 20/10/10 35/11/10 15/12/10
f 3/8/11 15/12/11 36/17/11 19/13/11
f 3/8/12 19/13/12 32/14/12 12/2/12
f 4/15/13 11/16/13 32/14/13 19/13/13
f 4/15/14 19/13/14 36/17/14 16/18/14
f 4/15/15 16/18/15 37/19/15 21/23/15
f 4/15/16 21/23/16 33/20/16 11/16/16
f 5/21/17 14/22/17 33/20/17 21/23/17
f 5/21/18 21/23/18 37/19/18 17/6/18
f 5/21/19 17/6/19 38/24/19 22/25/19
f 5/21/20 22/25/20 34/3/20 14/22/20
f 6/28/21 25/30/21 34/45/21 22/26/21
f 6/28/22 22/26/22 38/27/22 23/41/22
f 6/28/23 23/41/23 39/40/23 24/49/23
f 6/28/24 24/49/24 41/29/24 25/30/24
f 7/31/25 28/37/25 35/32/25 20/33/25
f 7/31/26 20/33/26 31/43/26 26/34/26
f 7/31/27 26/34/27 42/35/27 27/46/27
f 7/31/28 27/46/28 40/38/28 28/37/28
f 8/36/29 23/41/29 38/27/29 18/5/29
f 8/36/30 18/5/30 35/32/30 28/37/30
f 8/36/31 28/37/31 40/38/31 29/39/31
f 8/36/32 29/39/32 39/40/32 23/41/32
f 9/42/33 26/34/33 31/43/33 13/44/33
f 9/42/34 13/44/34 34/45/34 25/30/34
f 9/42/35 25/30/35 41/29/35 30/47/35
f 9/42/36 30/47/36 42/35/36 26/34/36
f 10/48/37 29/39/37 40/38/37 27/46/37
f 10/48/38 27/46/38 42/35/38 30/47/38
f 10/48/39 30/47/39 41/29/39 24/49/39
f 10/48/40 24/49/40 39/40/40 29/39/40
