# file generated by UVMapper
# NumVerts/NumTVerts/NumVNormals/NumFacets   42/48/40/40
# NumGroups/NumMaterials/NumRegions   0/0/0
# x/y/color/ppu   1024/1024/0/50.00000000

v -0.50415701  0.04340800 -4.94408083
v -0.50415999 -5.07846785  0.57783598
v -4.73705816  0.04341000  0.57783598
v -0.50415701  5.16528606  0.57783598
v  3.72874188  0.04340700  0.57783598
v -0.94864500  8.50948906  11.22163010
v -5.62603617  0.04341200  11.22163010
v  3.72873998  0.04340600  11.22163010
v -0.94865000 -8.42267036  11.22163010
v -1.39313602  0.04340900  16.34350777
v -0.50415802 -3.79799891 -3.56360197
v  2.67051697  0.04340800 -3.56360197
v  2.67051601 -3.79800010  0.57783598
v -3.67883301  0.04340900 -3.56360197
v -3.67883396 -3.79799795  0.57783598
v -0.50415701  3.88481593 -3.56360197
v -3.67883205  3.88481808  0.57783598
v  2.67051792  3.88481498  0.57783598
v -0.61528301 -5.91451883  5.99974298
v  3.72874093  0.04340700  5.99974298
v -4.95930195  0.04341100  5.99974298
v -0.61527902  6.00133705  5.99974298
v -4.45668697  6.39297199  11.22163010
v -1.28201199  8.06507111  15.06303787
v  2.55939507  6.39296818  11.22163010
v -4.45668983 -6.30614710  11.22163010
v -5.01230001  0.04341200  15.06303787
v  2.44827104  0.04340600  15.06303787
v  2.55939198 -6.30615377  11.22163010
v -1.28201604 -7.97825193  15.06303787
v  1.84745300 -2.80207896 -2.48989606
v -2.85577011 -2.80207801 -2.48989606
v -2.85576797  2.88889599 -2.48989606
v  1.84745395  2.88889503 -2.48989606
v  2.64273405 -4.42503881  5.99974298
v -3.87329888 -4.42503500  5.99974298
v -3.87329602  4.51185703  5.99974298
v  2.64273691  4.51185417  5.99974298
v  1.50173998  5.48994207  14.06711578
v -3.89290905  5.48994493  14.06711578
v -3.89291096 -5.40312195  14.06711578
v  1.50173700 -5.40312719  14.06711578

vt  0.69831145  0.05378061
vt  0.53028232  0.02898210
vt  0.75515664 -0.00290171
vt  0.81200182  0.05378061
vt  0.69680637  0.12463352
vt  0.64891577  0.12463352
vt  0.64672041  0.24985893
vt  0.65096527  0.02898210
vt  0.53028232  0.12463352
vt  0.60045427  0.05378061
vt  0.59849119  0.12463352
vt  0.60123610  0.24985893
vt  0.53028226  0.24985893
vt  0.98003107  0.12463352
vt  0.98003101  0.24985893
vt  0.90985906  0.05378061
vt  0.98003107  0.02898210
vt  0.85934800  0.02898210
vt  0.91182208  0.12463352
vt  0.86139750  0.12463352
vt  0.75515664  0.12463352
vt  0.75515664  0.02898210
vt  0.81350690  0.12463352
vt  0.81913394  0.24985893
vt  0.86359286  0.24985893
vt  0.90907717  0.24985893
vt  0.90372366  0.37046462
vt  0.90306723  0.43618450
vt  0.87056690  0.45918652
vt  0.86759382  0.37046462
vt  0.83146399  0.37046462
vt  0.98003101  0.37046462
vt  0.53028226  0.37046462
vt  0.60658962  0.37046462
vt  0.98003101  0.45918652
vt  0.67884928  0.37046462
vt  0.69117934  0.24985893
vt  0.75515664  0.24985893
vt  0.83733213  0.43618450
vt  0.75515664  0.45918652
vt  0.75515664  0.37046462
vt  0.67298114  0.43618450
vt  0.64271945  0.37046462
vt  0.63974643  0.45918652
vt  0.98003107  0.48876050
vt  0.53028232  0.48876050
vt  0.53028226  0.45918652
vt  0.60724604  0.43618450

vn  0.43211100 -0.35711199 -0.82810098
vn -0.43211100 -0.35711199 -0.82810098
vn -0.43211100  0.35711199 -0.82810098
vn  0.43211100  0.35711199 -0.82810098
vn  0.41322500 -0.85376000 -0.31676301
vn  0.39273199 -0.91204798 -0.11802600
vn -0.39193800 -0.91020203 -0.13385300
vn -0.41322601 -0.85376000 -0.31676301
vn -0.91161901 -0.30135700 -0.27952600
vn -0.96699500 -0.24951801 -0.05158800
vn -0.96699500  0.24951901 -0.05158800
vn -0.91161901  0.30135801 -0.27952600
vn -0.41322500  0.85376000 -0.31676400
vn -0.39193800  0.91020203 -0.13385300
vn  0.39273301  0.91204798 -0.11802600
vn  0.41322601  0.85376000 -0.31676301
vn  0.96821499 -0.24983300 -0.01196600
vn  0.91161901 -0.30135801 -0.27952501
vn  0.91161901  0.30135700 -0.27952501
vn  0.96821499  0.24983300 -0.01196600
vn  0.44362900  0.83239400 -0.33213401
vn -0.43483901  0.81590301 -0.38107499
vn -0.61685300  0.76718402  0.17584699
vn  0.60224098  0.74900901  0.27620900
vn -0.96755397  0.20171700 -0.15215001
vn -0.96755397 -0.20171700 -0.15214901
vn -0.95935899 -0.20271400  0.19631200
vn -0.95935899  0.20271400  0.19631200
vn  0.97854102 -0.20400800 -0.02893700
vn  0.97854197  0.20400700 -0.02893700
vn  0.91759402  0.19388901  0.34702799
vn  0.91759402 -0.19388901  0.34702700
vn -0.43483999 -0.81590199 -0.38107401
vn  0.44362801 -0.83239502 -0.33213499
vn  0.60224003 -0.74901003  0.27620900
vn -0.61685300 -0.76718301  0.17584600
vn  0.38065901 -0.17701700  0.90761399
vn  0.38065901  0.17701600  0.90761399
vn -0.40476501  0.18822700  0.89483899
vn -0.40476501 -0.18822600  0.89483798

g Figure 1
s off
f 1/3/1 12/22/1 31/1/1 11/8/1
f 1/3/2 11/8/2 32/10/2 14/2/2
f 1/3/3 14/17/3 33/16/3 16/18/3
f 1/3/4 16/18/4 34/4/4 12/22/4
f 2/6/5 11/8/5 31/1/5 13/5/5
f 2/6/6 13/5/6 35/37/6 19/7/6
f 2/6/7 19/7/7 36/12/7 15/11/7
f 2/6/8 15/11/8 32/10/8 11/8/8
f 3/9/9 14/2/9 32/10/9 15/11/9
f 3/9/10 15/11/10 36/12/10 21/13/10
f 3/14/11 21/15/11 37/26/11 17/19/11
f 3/14/12 17/19/12 33/16/12 14/17/12
f 4/20/13 16/18/13 33/16/13 17/19/13
f 4/20/14 17/19/14 37/26/14 22/25/14
f 4/20/15 22/25/15 38/24/15 18/23/15
f 4/20/16 18/23/16 34/4/16 16/18/16
f 5/21/17 20/38/17 35/37/17 13/5/17
f 5/21/18 13/5/18 31/1/18 12/22/18
f 5/21/19 12/22/19 34/4/19 18/23/19
f 5/21/20 18/23/20 38/24/20 20/38/20
f 6/30/21 25/31/21 38/24/21 22/25/21
f 6/30/22 22/25/22 37/26/22 23/27/22
f 6/30/23 23/27/23 40/28/23 24/29/23
f 6/30/24 24/29/24 39/39/24 25/31/24
f 7/32/25 23/27/25 37/26/25 21/15/25
f 7/33/26 21/13/26 36/12/26 26/34/26
f 7/33/27 26/34/27 41/48/27 27/47/27
f 7/32/28 27/35/28 40/28/28 23/27/28
f 8/41/29 29/36/29 35/37/29 20/38/29
f 8/41/30 20/38/30 38/24/30 25/31/30
f 8/41/31 25/31/31 39/39/31 28/40/31
f 8/41/32 28/40/32 42/42/32 29/36/32
f 9/43/33 26/34/33 36/12/33 19/7/33
f 9/43/34 19/7/34 35/37/34 29/36/34
f 9/43/35 29/36/35 42/42/35 30/44/35
f 9/43/36 30/44/36 41/48/36 26/34/36
f 10/46/37 30/44/37 42/42/37 28/40/37
f 10/45/38 28/40/38 39/39/38 24/29/38
f 10/45/39 24/29/39 40/28/39 27/35/39
f 10/46/40 27/47/40 41/48/40 30/44/40
