# file generated by UVMapper
# NumVerts/NumTVerts/NumVNormals/NumFacets   42/53/40/40
# NumGroups/NumMaterials/NumRegions   0/0/0
# x/y/color/ppu   1024/1024/0/50.00000000

v  0.02948500  0.04379100  27.46370506
v  0.02948400 -4.04723692  23.52426529
v -5.13748693  0.04379200  23.52426529
v  0.02948700  4.13481903  23.52426529
v  5.19645786  0.04379000  23.52426529
v  0.02948700  2.85408902  16.46618843
v  3.57889700  0.04379000  16.46618843
v  0.02948500 -2.76650810  16.46618843
v -3.51992512  0.04379100  16.46618843
v  0.02948600  0.04379100  13.34755230
v -4.73309708  0.04379100  19.79002571
v  0.02948500 -3.72705507  19.79002571
v  4.79206896  0.04379000  19.79002571
v  0.02948700  3.81463599  19.79002571
v  0.02948300 -3.02448010  26.47884178
v -3.84574509  0.04379200  26.47884178
v  0.02948600  3.11206198  26.47884178
v  3.90471506  0.04379000  26.47884178
v -3.84574509 -3.02447891  23.52426529
v  3.90471411 -3.02448106  23.52426529
v -3.84574294  3.11206198  23.52426529
v  3.90471601  3.11206102  23.52426529
v  2.69154501  2.15151405  16.46618843
v  0.02948700  1.51115000  14.12721157
v -2.63257194  2.15151501  16.46618843
v  2.69154406 -2.06393409  16.46618843
v  1.88276398  0.04379000  14.12721157
v -2.63257194 -2.06393290  16.46618843
v  0.02948600 -1.42356896  14.12721157
v -1.82379103  0.04379100  14.12721157
v  3.60142207 -2.78434396  19.79002571
v -3.54245210 -2.78434300  19.79002571
v -3.54244995  2.87192607  19.79002571
v  3.60142398  2.87192392  19.79002571
v  2.90002489 -2.22900295  25.71284103
v -2.84105706 -2.22900105  25.71284103
v -2.84105396  2.31658506  25.71284103
v  2.90002608  2.31658292  25.71284103
v  1.64192295  1.32046103  14.73361206
v -1.58295000  1.32046199  14.73361206
v -1.58295095 -1.23288000  14.73361206
v  1.64192295 -1.23288000  14.73361206

vt  0.19750468  0.97823727
vt  0.30132532  0.97823727
vt  0.29367828  0.92289019
vt  0.40514597  0.97823727
vt  0.09368405  0.97823727
vt  0.04177373  0.94710451
vt  0.20515171  0.73566234
vt  0.14559437  0.85370648
vt  0.20515169  0.85370648
vt  0.14559437  0.94710451
vt  0.08603698  0.92289019
vt  0.08603702  0.73566234
vt  0.04177373  0.73566234
vt  0.04177373  0.85370648
vt  0.08603700  0.85370648
vt  0.45705631  0.94710451
vt  0.41279298  0.92289019
vt  0.41279298  0.85370648
vt  0.45705631  0.85370648
vt  0.35323563  0.85370648
vt  0.35323566  0.94710451
vt  0.29367828  0.85370648
vt  0.35323563  0.73566234
vt  0.24941501  0.94710451
vt  0.20515171  0.92289019
vt  0.24941501  0.85370648
vt  0.35323560  0.63059151
vt  0.41279298  0.73566234
vt  0.29367825  0.63059151
vt  0.29367825  0.73566234
vt  0.24941501  0.73566234
vt  0.24941501  0.63059151
vt  0.24941501  0.55665344
vt  0.29367825  0.57582253
vt  0.14559437  0.63059151
vt  0.20515172  0.63059151
vt  0.14559437  0.73566234
vt  0.14559440  0.55665344
vt  0.04177373  0.63059151
vt  0.45705631  0.73566234
vt  0.41279301  0.63059151
vt  0.45705631  0.63059151
vt  0.41279295  0.57582253
vt  0.45705631  0.55665344
vt  0.08603702  0.57582253
vt  0.08603702  0.63059151
vt  0.19750471  0.53200740
vt  0.20515174  0.57582253
vt  0.09368407  0.53200740
vt  0.04177373  0.55665344
vt  0.40514591  0.53200740
vt  0.35323557  0.55665344
vt  0.30132526  0.53200740

vn  0.27372101 -0.34571001  0.89753097
vn  0.27372101  0.34571001  0.89753097
vn -0.27372101  0.34571001  0.89753097
vn -0.27372101 -0.34571001  0.89753097
vn  0.25431100 -0.96358699 -0.08262000
vn  0.28071600 -0.88636100  0.36818799
vn -0.28071600 -0.88636100  0.36818799
vn -0.25431201 -0.96358699 -0.08262000
vn -0.91709602 -0.38609800 -0.09931500
vn -0.80832702 -0.40836701  0.42408100
vn -0.80832601  0.40836701  0.42408100
vn -0.91709602  0.38609800 -0.09931500
vn -0.25431100  0.96358699 -0.08262000
vn -0.28071600  0.88636202  0.36818701
vn  0.28071600  0.88636100  0.36818799
vn  0.25431201  0.96358699 -0.08262000
vn  0.80832601 -0.40836701  0.42408100
vn  0.91709602 -0.38609800 -0.09931400
vn  0.91709602  0.38609800 -0.09931500
vn  0.80832702  0.40836599  0.42408100
vn -0.24577001  0.93122298 -0.26911199
vn  0.24577001  0.93122298 -0.26911101
vn  0.24461700  0.82771897 -0.50501901
vn -0.24461700  0.82771897 -0.50501901
vn  0.87355101  0.36776501 -0.31883800
vn  0.87355101 -0.36776599 -0.31883800
vn  0.74205202 -0.34982201 -0.57182503
vn  0.74205202  0.34982100 -0.57182503
vn  0.24577001 -0.93122298 -0.26911199
vn -0.24577001 -0.93122298 -0.26911199
vn -0.24461700 -0.82771897 -0.50501901
vn  0.24461700 -0.82771897 -0.50501901
vn -0.87355101 -0.36776501 -0.31883800
vn -0.87355101  0.36776501 -0.31883800
vn -0.74205202  0.34982100 -0.57182503
vn -0.74205202 -0.34982100 -0.57182503
vn  0.35336599 -0.44630200 -0.82216001
vn -0.35336700 -0.44630200 -0.82216001
vn -0.35336599  0.44630200 -0.82216001
vn  0.35336700  0.44630200 -0.82216001

g Figure 1
s off
éûìÁˆÌ¡@C­û¿ñŸhÀéûìÁ5C%@:­û¿mÉb¿éûìÁˆÌ¡@ZÆ@mÉb¿éûìÁ5C%@Q
rÿÿÿqÿÿÿpÿÿÿoÿÿÿnÿÿÿmÿÿÿlÿÿÿkÿÿÿjÿÿÿiÿÿÿhÿÿÿ
f 1/1/1 15/10/1 35/25/1 18/24/1
f 1/2/2 18/24/2 38/3/2 17/21/2
f 1/4/3 17/21/3 37/17/3 16/16/3
f 1/5/4 16/6/4 36/11/4 15/10/4
f 2/8/5 12/37/5 31/7/5 20/9/5
f 2/8/6 20/9/6 35/25/6 15/10/6
f 2/8/7 15/10/7 36/11/7 19/15/7
f 2/8/8 19/15/8 32/12/8 12/37/8
f 3/14/9 11/13/9 32/12/9 19/15/9
f 3/14/10 19/15/10 36/11/10 16/6/10
f 3/19/11 16/16/11 37/17/11 21/18/11
f 3/19/12 21/18/12 33/28/12 11/40/12
f 4/20/13 14/23/13 33/28/13 21/18/13
f 4/20/14 21/18/14 37/17/14 17/21/14
f 4/20/15 17/21/15 38/3/15 22/22/15
f 4/20/16 22/22/16 34/30/16 14/23/16
f 5/26/17 18/24/17 35/25/17 20/9/17
f 5/26/18 20/9/18 31/7/18 13/31/18
f 5/26/19 13/31/19 34/30/19 22/22/19
f 5/26/20 22/22/20 38/3/20 18/24/20
f 6/27/21 25/41/21 33/28/21 14/23/21
f 6/27/22 14/23/22 34/30/22 23/29/22
f 6/27/23 23/29/23 39/34/23 24/52/23
f 6/27/24 24/52/24 40/43/24 25/41/24
f 7/32/25 23/29/25 34/30/25 13/31/25
f 7/32/26 13/31/26 31/7/26 26/36/26
f 7/32/27 26/36/27 42/48/27 27/33/27
f 7/32/28 27/33/28 39/34/28 23/29/28
f 8/35/29 26/36/29 31/7/29 12/37/29
f 8/35/30 12/37/30 32/12/30 28/46/30
f 8/35/31 28/46/31 41/45/31 29/38/31
f 8/35/32 29/38/32 42/48/32 26/36/32
f 9/39/33 28/46/33 32/12/33 11/13/33
f 9/42/34 11/40/34 33/28/34 25/41/34
f 9/42/35 25/41/35 40/43/35 30/44/35
f 9/39/36 30/50/36 41/45/36 28/46/36
f 10/47/37 27/33/37 42/48/37 29/38/37
f 10/49/38 29/38/38 41/45/38 30/50/38
f 10/51/39 30/44/39 40/43/39 24/52/39
f 10/53/40 24/52/40 39/34/40 27/33/40
